<svg width="420" height="420" viewBox="0 0 420 420" fill="none" xmlns="http://www.w3.org/2000/svg">
    <rect width="420" height="420" rx="50" fill="black"/>
    <path d="M351.752 314H239.105V302.574C242.426 302.281 246.479 301.793 251.264 301.109C256.146 300.426 259.467 299.693 261.225 298.912C264.838 297.447 267.426 295.445 268.988 292.906C270.551 290.367 271.332 287.145 271.332 283.238V127.965L199.848 310.631H181.391C180.512 307.408 178.314 301.012 174.799 291.441C171.381 281.871 168.598 274.205 166.449 268.443L113.861 125.621V252.037C113.861 264.146 114.643 273.375 116.205 279.723C117.865 285.973 120.502 290.562 124.115 293.492C126.557 295.543 130.902 297.496 137.152 299.352C143.5 301.207 147.943 302.281 150.482 302.574V314H61.127V302.574C63.5684 302.281 67.5234 301.646 72.9922 300.67C78.5586 299.596 83.0996 297.789 86.6152 295.25C90.5215 292.516 93.1582 287.926 94.5254 281.48C95.8926 274.938 96.5762 265.66 96.5762 253.648V150.67C96.5762 144.42 95.7949 139.244 94.2324 135.143C92.6699 130.943 90.3262 127.623 87.2012 125.182C83.2949 122.154 79.291 120.201 75.1895 119.322C71.0879 118.443 66.9375 117.857 62.7383 117.564V106.139H158.393L209.662 243.395L252.875 131.92C254.34 127.818 255.756 122.936 257.123 117.271C258.49 111.607 259.223 107.896 259.32 106.139H351.459V117.564C348.334 117.76 345.062 118.15 341.645 118.736C338.227 119.322 334.955 120.104 331.83 121.08C328.021 122.35 325.482 124.352 324.213 127.086C323.041 129.82 322.455 132.848 322.455 136.168V283.385C322.455 286.9 323.041 289.879 324.213 292.32C325.482 294.664 328.021 296.715 331.83 298.473C333.783 299.352 336.957 300.182 341.352 300.963C345.844 301.744 349.311 302.281 351.752 302.574V314Z" fill="url(#paint0_linear_38_5)"/>
    <defs>
    <linearGradient id="paint0_linear_38_5" x1="210" y1="39" x2="210" y2="380" gradientUnits="userSpaceOnUse">
    <stop stop-color="#919CFF"/>
    <stop offset="0.59375" stop-color="#E7B7EF"/>
    <stop offset="0.989583" stop-color="#BBEA56"/>
    </linearGradient>
    </defs>
    </svg>
    